<?xml version="1.0" encoding="UTF-8" standalone="no"?>
<!-- Created with Inkscape (http://www.inkscape.org/) -->

<svg
   width="802"
   height="122.546"
   viewBox="0 0 802 122.546"
   version="1.1"
   id="svg281"
   inkscape:version="1.2.2 (b0a8486541, 2022-12-01)"
   sodipodi:docname="Proxmox-logo-800-white.svg"
   xmlns:inkscape="http://www.inkscape.org/namespaces/inkscape"
   xmlns:sodipodi="http://sodipodi.sourceforge.net/DTD/sodipodi-0.dtd"
   xmlns="http://www.w3.org/2000/svg"
   xmlns:svg="http://www.w3.org/2000/svg">
  <sodipodi:namedview
     id="namedview283"
     pagecolor="#ffffff"
     bordercolor="#666666"
     borderopacity="1.0"
     inkscape:showpageshadow="false"
     inkscape:pageopacity="0.0"
     inkscape:pagecheckerboard="true"
     inkscape:deskcolor="#d1d1d1"
     inkscape:document-units="px"
     showgrid="false"
     inkscape:zoom="1"
     inkscape:cx="135.5"
     inkscape:cy="140"
     inkscape:window-width="1926"
     inkscape:window-height="1478"
     inkscape:window-x="0"
     inkscape:window-y="0"
     inkscape:window-maximized="0"
     inkscape:current-layer="layer1" />
  <defs
     id="defs278" />
  <g
     inkscape:label="Layer 1"
     inkscape:groupmode="layer"
     id="layer1">
    <g
       id="g196"
       transform="matrix(2.7487472,0,0,2.7487472,-33.285689,-516.58373)">
      <path
         inkscape:connector-curvature="0"
         id="path35"
         style="fill:#e57000;fill-opacity:1;fill-rule:nonzero;stroke:none;stroke-width:0.367022"
         d="m 50.122824,210.22593 12.761014,14.02324 c -1.402376,1.44899 -3.36558,2.33756 -5.516341,2.33756 -2.290214,0 -4.300047,-0.9818 -5.702455,-2.52439 l -7.058202,-7.75922 -5.515999,-6.07719 5.515999,-6.03018 7.058202,-7.7596 c 1.402408,-1.54222 3.412241,-2.52438 5.702455,-2.52438 2.150761,0 4.113965,0.88819 5.516341,2.2906 z"
         sodipodi:nodetypes="ccscccccscc" />
      <path
         inkscape:connector-curvature="0"
         id="path37"
         style="fill:#e57000;fill-opacity:1;fill-rule:nonzero;stroke:none;stroke-width:0.367022"
         d="m 25.23422,210.22578 -12.761014,14.02324 c 1.402376,1.44899 3.36558,2.33756 5.516341,2.33756 2.290214,0 4.300047,-0.9818 5.702455,-2.52441 l 7.058202,-7.75921 5.515984,-6.07718 -5.515984,-6.03018 -7.058202,-7.7596 c -1.402408,-1.54224 -3.412241,-2.52439 -5.702455,-2.52439 -2.150761,0 -4.113965,0.8882 -5.516341,2.2906 z"
         sodipodi:nodetypes="ccscccccscc" />
      <path
         inkscape:connector-curvature="0"
         id="path39"
         style="fill:#ffffff;fill-opacity:1;fill-rule:nonzero;stroke:none;stroke-width:0.335"
         d="m 42.706782,217.17905 -5.034554,-5.54677 -5.034788,5.54677 -11.647712,12.79991 c 1.279904,1.27997 3.072283,2.0906 5.034197,2.0906 2.090782,0 3.840397,-0.85355 5.162739,-2.30398 l 6.485564,-7.08247 6.442084,7.08247 c 1.280153,1.40754 3.114473,2.30398 5.20493,2.30398 1.962985,0 3.754976,-0.81063 5.034896,-2.0906 z"
         sodipodi:nodetypes="ccccscccscc" />
      <path
         inkscape:connector-curvature="0"
         id="path41"
         style="fill:#ffffff;fill-opacity:1;fill-rule:nonzero;stroke:none;stroke-width:0.335"
         d="m 42.706472,203.27192 -5.034555,5.54676 -5.034787,-5.54676 -11.647713,-12.7999 c 1.27992,-1.27997 3.072283,-2.0906 5.034213,-2.0906 2.090783,0 3.840381,0.85354 5.162724,2.30397 l 6.485563,7.08248 6.442085,-7.08248 c 1.280168,-1.40754 3.114488,-2.30397 5.204929,-2.30397 1.962986,0 3.754992,0.81063 5.034896,2.0906 z"
         sodipodi:nodetypes="ccccscccscc" />
      <g
         style="fill:#ffffff;fill-opacity:1"
         transform="matrix(0.31442188,0,0,-0.31442188,89.104657,211.11385)"
         id="g47">
        <path
           inkscape:connector-curvature="0"
           id="path45"
           style="fill:#ffffff;fill-opacity:1;fill-rule:nonzero;stroke:none"
           d="M 0,0 C 5.477,0 5.477,5.604 5.477,5.604 V 19.486 C 5.477,24.963 0,24.963 0,24.963 H -39.101 V 0 Z M 27.892,24.963 V 2.802 c 0,-12.355 -10.062,-22.288 -22.415,-22.288 h -44.578 c 0,-12.355 -9.934,-22.289 -22.16,-22.289 v 80.748 c 0,4.585 3.821,8.405 8.279,8.405 H 5.477 c 12.353,0 22.415,-10.062 22.415,-22.415" />
      </g>
      <g
         style="fill:#ffffff;fill-opacity:1"
         transform="matrix(0.31442188,0,0,-0.31442188,121.10166,209.35166)"
         id="g51">
        <path
           inkscape:connector-curvature="0"
           id="path49"
           style="fill:#ffffff;fill-opacity:1;fill-rule:nonzero;stroke:none"
           d="m 0,0 c 5.604,0 5.604,5.476 5.604,5.476 v 8.406 C 5.604,19.358 0,19.358 0,19.358 H -38.845 V 0 Z m 9.934,-19.233 17.959,-25.599 c -3.057,-1.656 -6.624,-2.548 -10.317,-2.548 -7.642,0 -14.137,3.694 -18.213,9.553 L -13.5,-19.486 h -25.345 v -5.605 c 0,-12.354 -10.062,-22.289 -22.289,-22.289 v 80.748 c 0,4.585 3.693,8.405 8.279,8.405 H 5.604 c 12.354,0 22.289,-10.061 22.289,-22.415 V 2.674 c 0,-10.825 -7.77,-19.869 -17.959,-21.907" />
      </g>
      <g
         style="fill:#ffffff;fill-opacity:1"
         transform="matrix(0.31442188,0,0,-0.31442188,154.86134,204.9869)"
         id="g55">
        <path
           inkscape:connector-curvature="0"
           id="path53"
           style="fill:#ffffff;fill-opacity:1;fill-rule:nonzero;stroke:none"
           d="M 0,0 C 0,5.477 -5.604,5.477 -5.604,5.477 H -38.846 C -44.449,5.477 -44.449,0 -44.449,0 v -33.368 c 0,-5.605 5.603,-5.605 5.603,-5.605 H -5.604 C 0,-38.973 0,-33.368 0,-33.368 Z m 22.288,5.477 v -44.45 C 22.288,-51.327 12.353,-61.262 0,-61.262 h -44.449 c -12.355,0 -22.289,9.935 -22.289,22.289 v 44.45 c 0,12.353 9.934,22.415 22.289,22.415 H 0 c 12.353,0 22.288,-10.062 22.288,-22.415" />
      </g>
      <g
         style="fill:#000000;fill-opacity:1"
         transform="matrix(0.31442188,0,0,-0.31442188,186.2584,210.2329)"
         id="g59">
        <path
           inkscape:connector-curvature="0"
           id="path57"
           style="fill:#e57000;fill-opacity:1;fill-rule:nonzero;stroke:none"
           d="m 0,0 34.769,-38.208 c -3.821,-3.948 -9.17,-6.369 -15.03,-6.369 -6.24,0 -11.716,2.675 -15.537,6.878 l -19.231,21.141 -19.233,-21.141 c -3.82,-4.203 -9.425,-6.878 -15.538,-6.878 -5.857,0 -11.207,2.421 -15.028,6.369 L -30.058,0 -64.828,38.209 c 3.821,3.821 9.171,6.241 15.028,6.241 6.241,0 11.464,-2.548 15.411,-6.878 L -15.029,16.43 4.202,37.572 c 3.821,4.202 9.297,6.878 15.537,6.878 5.86,0 11.209,-2.42 15.03,-6.241 z" />
      </g>
      <g
         style="fill:#ffffff;fill-opacity:1"
         transform="matrix(0.31442188,0,0,-0.31442188,236.19589,198.85997)"
         id="g63">
        <path
           inkscape:connector-curvature="0"
           id="path61"
           style="fill:#ffffff;fill-opacity:1;fill-rule:nonzero;stroke:none"
           d="m 0,0 v -80.748 c -12.226,0 -22.288,9.935 -22.288,22.289 v 42.666 c 0,1.147 -0.765,1.91 -1.784,1.91 -0.765,0 -1.401,-0.509 -1.782,-1.019 l -24.71,-54.637 c -1.019,-1.911 -2.928,-3.185 -5.095,-3.185 -2.164,0 -4.201,1.401 -5.093,3.312 l -24.708,54.51 c -0.256,0.51 -1.019,1.019 -1.657,1.019 -1.147,0 -1.911,-0.763 -1.911,-1.91 v -42.666 c 0,-12.354 -10.061,-22.289 -22.287,-22.289 V 0 c 0,4.585 3.692,8.405 8.406,8.405 h 13.881 c 9.043,0 16.941,-5.475 20.379,-13.372 v 0.254 l 12.99,-28.783 13.118,28.783 -0.126,-0.254 c 3.565,7.897 11.336,13.372 20.379,13.372 H -8.279 C -3.693,8.405 0,4.585 0,0" />
      </g>
      <g
         style="fill:#ffffff;fill-opacity:1"
         transform="matrix(0.31442188,0,0,-0.31442188,261.18567,204.9869)"
         id="g67">
        <path
           inkscape:connector-curvature="0"
           id="path65"
           style="fill:#ffffff;fill-opacity:1;fill-rule:nonzero;stroke:none"
           d="M 0,0 C 0,5.477 -5.604,5.477 -5.604,5.477 H -38.845 C -44.448,5.477 -44.448,0 -44.448,0 v -33.368 c 0,-5.605 5.603,-5.605 5.603,-5.605 H -5.604 C 0,-38.973 0,-33.368 0,-33.368 Z m 22.289,5.477 v -44.45 C 22.289,-51.327 12.353,-61.262 0,-61.262 h -44.448 c -12.355,0 -22.288,9.935 -22.288,22.289 v 44.45 c 0,12.353 9.933,22.415 22.288,22.415 H 0 c 12.353,0 22.289,-10.062 22.289,-22.415" />
      </g>
      <g
         style="fill:#000000;fill-opacity:1"
         transform="matrix(0.31442188,0,0,-0.31442188,292.58275,210.2329)"
         id="g71">
        <path
           inkscape:connector-curvature="0"
           id="path69"
           style="fill:#e57000;fill-opacity:1;fill-rule:nonzero;stroke:none"
           d="m 0,0 34.769,-38.208 c -3.82,-3.948 -9.17,-6.369 -15.03,-6.369 -6.24,0 -11.716,2.675 -15.537,6.878 l -19.231,21.141 -19.233,-21.141 c -3.82,-4.203 -9.425,-6.878 -15.537,-6.878 -5.858,0 -11.208,2.421 -15.029,6.369 L -30.06,0 -64.828,38.209 c 3.821,3.821 9.171,6.241 15.029,6.241 6.24,0 11.463,-2.548 15.412,-6.878 L -15.029,16.43 4.202,37.572 c 3.821,4.202 9.297,6.878 15.537,6.878 5.86,0 11.21,-2.42 15.03,-6.241 z" />
      </g>
    </g>
  </g>
</svg>
